<svg width="14" height="14" viewBox="0 0 14 14" fill="none" xmlns="http://www.w3.org/2000/svg">
<g id="Group">
<path id="Vector" d="M12.8321 6.85938C12.8234 7.85657 12.5967 8.8398 12.168 9.74014" stroke="#5F8CDC" stroke-width="1.5" stroke-linecap="round" stroke-linejoin="round"/>
<path id="Vector_2" d="M6.99935 12.6927C6.2333 12.6927 5.47476 12.5418 4.76703 12.2487C4.0593 11.9555 3.41623 11.5258 2.87456 10.9842C1.7806 9.8902 1.16602 8.40647 1.16602 6.85938" stroke="#5F8CDC" stroke-width="1.5" stroke-linecap="round" stroke-linejoin="round"/>
<path id="Vector_3" d="M8.79382 8.65375L6.99895 6.41016H4.30664" stroke="#5F8CDC" stroke-width="1.5" stroke-linecap="round" stroke-linejoin="round"/>
<path id="Vector_4" d="M12.0829 10.8969C12.0829 11.2262 11.816 11.4931 11.4868 11.4931C11.1575 11.4931 10.8906 11.2262 10.8906 10.8969C10.8906 10.5677 11.1575 10.3008 11.4868 10.3008C11.816 10.3008 12.0829 10.5677 12.0829 10.8969Z" stroke="#5F8CDC" stroke-width="1.5" stroke-linecap="round" stroke-linejoin="round"/>
<path id="Vector_5" d="M1.54297 4.70395C1.73855 4.21516 2.00134 3.75604 2.32374 3.33984" stroke="#5F8CDC" stroke-width="1.5" stroke-linecap="round" stroke-linejoin="round"/>
<path id="Vector_6" d="M4.05664 1.79617C4.5624 1.50413 5.11035 1.29222 5.681 1.16797" stroke="#5F8CDC" stroke-width="1.5" stroke-linecap="round" stroke-linejoin="round"/>
<path id="Vector_7" d="M12.4566 4.70395C12.261 4.21516 11.9982 3.75604 11.6758 3.33984" stroke="#5F8CDC" stroke-width="1.5" stroke-linecap="round" stroke-linejoin="round"/>
<path id="Vector_8" d="M9.94272 1.79617C9.43696 1.50413 8.88901 1.29222 8.31836 1.16797" stroke="#5F8CDC" stroke-width="1.5" stroke-linecap="round" stroke-linejoin="round"/>
</g>
</svg>
